<?xml version="1.0" standalone="no"?>
<!DOCTYPE svg PUBLIC "-//W3C//DTD SVG 20010904//EN"
 "http://www.w3.org/TR/2001/REC-SVG-20010904/DTD/svg10.dtd">
<svg version="1.0" xmlns="http://www.w3.org/2000/svg"
 width="614.000000pt" height="614.000000pt" viewBox="0 0 614.000000 614.000000"
 preserveAspectRatio="xMidYMid meet">
<metadata>
Created by potrace 1.11, written by Peter Selinger 2001-2013
</metadata>
<g transform="translate(0.000000,614.000000) scale(0.100000,-0.100000)"
fill="#000000" stroke="none">
<path d="M2779 6116 c-2 -2 -56 -6 -119 -10 -63 -4 -128 -8 -145 -10 -16 -2
-61 -7 -100 -11 -38 -3 -81 -8 -95 -10 -14 -2 -44 -6 -67 -9 -89 -12 -120 -16
-143 -21 -14 -3 -45 -8 -69 -11 -25 -3 -48 -7 -52 -10 -4 -2 -22 -6 -40 -8
-19 -3 -77 -14 -129 -25 -444 -93 -883 -237 -1289 -423 -145 -66 -488 -244
-510 -264 -7 -7 4 -386 14 -484 2 -19 7 -69 10 -110 3 -41 8 -86 10 -100 2
-14 6 -50 10 -80 6 -52 9 -72 19 -137 3 -16 10 -64 16 -108 6 -44 15 -96 20
-115 5 -19 11 -48 13 -65 12 -73 48 -218 68 -267 28 -71 119 -225 176 -296
146 -183 321 -321 523 -415 202 -94 360 -129 580 -131 138 -1 272 8 289 18 4
3 25 7 48 10 67 11 222 64 318 111 275 134 501 353 645 627 56 107 126 307
135 387 3 30 7 57 9 60 5 9 15 129 21 251 6 134 17 221 37 310 5 25 11 54 14
65 19 99 120 340 190 458 45 75 167 235 226 297 86 90 273 242 338 274 8 4 33
18 55 31 51 31 88 48 200 96 82 34 88 38 65 47 -14 5 -47 12 -75 16 -27 3 -59
8 -70 10 -11 2 -54 7 -95 11 -41 3 -82 8 -90 10 -8 2 -55 7 -105 10 -49 4
-106 9 -125 11 -42 6 -726 15 -731 10z"/>
<path d="M4470 5840 c-25 -4 -63 -11 -85 -14 -115 -19 -264 -69 -390 -133
-222 -112 -392 -264 -551 -493 -71 -101 -174 -349 -199 -475 -3 -16 -7 -41
-10 -54 -53 -278 -7 -600 124 -876 123 -259 303 -449 594 -629 238 -147 417
-320 560 -544 55 -84 137 -251 168 -337 20 -57 25 -74 49 -162 12 -44 28 -127
38 -198 8 -60 9 -372 0 -433 -4 -29 -2 -42 6 -39 17 6 205 254 319 422 442
653 762 1405 917 2160 28 137 54 280 65 360 3 22 10 69 15 105 10 67 16 126
26 240 3 36 7 79 9 95 3 17 7 129 11 250 l7 220 -34 17 c-19 10 -63 34 -99 54
-382 214 -903 422 -1155 460 -64 10 -336 12 -385 4z"/>
<path d="M2845 3119 c-159 -27 -302 -78 -503 -178 -331 -167 -517 -215 -832
-215 -187 0 -321 18 -485 66 -38 11 -71 20 -72 20 -2 -1 -48 19 -105 44 -131
57 -211 102 -326 181 -50 35 -92 60 -92 55 0 -10 88 -222 134 -326 77 -169
207 -417 314 -596 64 -107 253 -398 282 -433 6 -7 58 -76 117 -153 60 -78 157
-200 218 -270 112 -132 459 -486 574 -584 34 -30 68 -60 75 -65 116 -106 404
-324 611 -462 216 -144 310 -197 337 -190 77 20 642 409 818 563 14 12 80 69
147 128 203 176 222 198 285 326 81 167 135 327 153 455 3 22 8 50 10 62 12
54 6 293 -9 380 -75 428 -301 769 -661 998 -105 67 -312 154 -404 170 -19 3
-37 8 -40 10 -4 2 -26 6 -51 10 -25 4 -49 9 -54 12 -4 3 -81 7 -170 8 -120 2
-189 -2 -271 -16z"/>
</g>
</svg>
